<svg width="79" height="29" viewBox="0 0 79 29" fill="none" xmlns="http://www.w3.org/2000/svg">
<path d="M15.6152 24.5723V28H4.87793V24.5723H15.6152ZM6.29883 6.67188V28H1.9043V6.67188H6.29883ZM34.6875 16.8379V17.8486C34.6875 19.4697 34.4678 20.9248 34.0283 22.2139C33.5889 23.5029 32.9688 24.6016 32.168 25.5098C31.3672 26.4082 30.4102 27.0967 29.2969 27.5752C28.1934 28.0537 26.9678 28.293 25.6201 28.293C24.2822 28.293 23.0566 28.0537 21.9434 27.5752C20.8398 27.0967 19.8828 26.4082 19.0723 25.5098C18.2617 24.6016 17.6318 23.5029 17.1826 22.2139C16.7432 20.9248 16.5234 19.4697 16.5234 17.8486V16.8379C16.5234 15.207 16.7432 13.752 17.1826 12.4727C17.6221 11.1836 18.2422 10.085 19.043 9.17676C19.8535 8.26855 20.8105 7.5752 21.9141 7.09668C23.0273 6.61816 24.2529 6.37891 25.5908 6.37891C26.9385 6.37891 28.1641 6.61816 29.2676 7.09668C30.3809 7.5752 31.3379 8.26855 32.1387 9.17676C32.9492 10.085 33.5742 11.1836 34.0137 12.4727C34.4629 13.752 34.6875 15.207 34.6875 16.8379ZM30.249 17.8486V16.8086C30.249 15.6758 30.1465 14.6797 29.9414 13.8203C29.7363 12.9609 29.4336 12.2383 29.0332 11.6523C28.6328 11.0664 28.1445 10.627 27.5684 10.334C26.9922 10.0312 26.333 9.87988 25.5908 9.87988C24.8486 9.87988 24.1895 10.0312 23.6133 10.334C23.0469 10.627 22.5635 11.0664 22.1631 11.6523C21.7725 12.2383 21.4746 12.9609 21.2695 13.8203C21.0645 14.6797 20.9619 15.6758 20.9619 16.8086V17.8486C20.9619 18.9717 21.0645 19.9678 21.2695 20.8369C21.4746 21.6963 21.7773 22.4238 22.1777 23.0195C22.5781 23.6055 23.0664 24.0498 23.6426 24.3525C24.2188 24.6553 24.8779 24.8066 25.6201 24.8066C26.3623 24.8066 27.0215 24.6553 27.5977 24.3525C28.1738 24.0498 28.6572 23.6055 29.0479 23.0195C29.4385 22.4238 29.7363 21.6963 29.9414 20.8369C30.1465 19.9678 30.249 18.9717 30.249 17.8486ZM54.7559 16.8525V25.3047C54.4238 25.7051 53.9111 26.1396 53.2178 26.6084C52.5244 27.0674 51.6309 27.4629 50.5371 27.7949C49.4434 28.127 48.1201 28.293 46.5674 28.293C45.1904 28.293 43.9355 28.0684 42.8027 27.6191C41.6699 27.1602 40.6934 26.4912 39.873 25.6123C39.0625 24.7334 38.4375 23.6592 37.998 22.3896C37.5586 21.1104 37.3389 19.6504 37.3389 18.0098V16.6768C37.3389 15.0361 37.5488 13.5762 37.9688 12.2969C38.3984 11.0176 39.0088 9.93848 39.7998 9.05957C40.5908 8.18066 41.5332 7.51172 42.627 7.05273C43.7207 6.59375 44.9365 6.36426 46.2744 6.36426C48.1299 6.36426 49.6533 6.66699 50.8447 7.27246C52.0361 7.86816 52.9443 8.69824 53.5693 9.7627C54.2041 10.8174 54.5947 12.0283 54.7412 13.3955H50.4785C50.3711 12.6729 50.166 12.043 49.8633 11.5059C49.5605 10.9687 49.126 10.5488 48.5596 10.2461C48.0029 9.94336 47.2803 9.79199 46.3916 9.79199C45.6592 9.79199 45.0049 9.94336 44.4287 10.2461C43.8623 10.5391 43.3838 10.9736 42.9932 11.5498C42.6025 12.126 42.3047 12.8389 42.0996 13.6885C41.8945 14.5381 41.792 15.5244 41.792 16.6475V18.0098C41.792 19.123 41.8994 20.1094 42.1143 20.9688C42.3291 21.8184 42.6465 22.5361 43.0664 23.1221C43.4961 23.6982 44.0234 24.1328 44.6484 24.4258C45.2734 24.7188 46.001 24.8652 46.8311 24.8652C47.5244 24.8652 48.1006 24.8066 48.5596 24.6895C49.0283 24.5723 49.4043 24.4307 49.6875 24.2646C49.9805 24.0889 50.2051 23.9229 50.3613 23.7666V19.9873H46.3477V16.8525H54.7559ZM75.8203 16.8379V17.8486C75.8203 19.4697 75.6006 20.9248 75.1611 22.2139C74.7217 23.5029 74.1016 24.6016 73.3008 25.5098C72.5 26.4082 71.543 27.0967 70.4297 27.5752C69.3262 28.0537 68.1006 28.293 66.7529 28.293C65.415 28.293 64.1895 28.0537 63.0762 27.5752C61.9727 27.0967 61.0156 26.4082 60.2051 25.5098C59.3945 24.6016 58.7646 23.5029 58.3154 22.2139C57.876 20.9248 57.6562 19.4697 57.6562 17.8486V16.8379C57.6562 15.207 57.876 13.752 58.3154 12.4727C58.7549 11.1836 59.375 10.085 60.1758 9.17676C60.9863 8.26855 61.9434 7.5752 63.0469 7.09668C64.1602 6.61816 65.3857 6.37891 66.7236 6.37891C68.0713 6.37891 69.2969 6.61816 70.4004 7.09668C71.5137 7.5752 72.4707 8.26855 73.2715 9.17676C74.082 10.085 74.707 11.1836 75.1465 12.4727C75.5957 13.752 75.8203 15.207 75.8203 16.8379ZM71.3818 17.8486V16.8086C71.3818 15.6758 71.2793 14.6797 71.0742 13.8203C70.8691 12.9609 70.5664 12.2383 70.166 11.6523C69.7656 11.0664 69.2773 10.627 68.7012 10.334C68.125 10.0312 67.4658 9.87988 66.7236 9.87988C65.9814 9.87988 65.3223 10.0312 64.7461 10.334C64.1797 10.627 63.6963 11.0664 63.2959 11.6523C62.9053 12.2383 62.6074 12.9609 62.4023 13.8203C62.1973 14.6797 62.0947 15.6758 62.0947 16.8086V17.8486C62.0947 18.9717 62.1973 19.9678 62.4023 20.8369C62.6074 21.6963 62.9102 22.4238 63.3105 23.0195C63.7109 23.6055 64.1992 24.0498 64.7754 24.3525C65.3516 24.6553 66.0107 24.8066 66.7529 24.8066C67.4951 24.8066 68.1543 24.6553 68.7305 24.3525C69.3066 24.0498 69.79 23.6055 70.1807 23.0195C70.5713 22.4238 70.8691 21.6963 71.0742 20.8369C71.2793 19.9678 71.3818 18.9717 71.3818 17.8486Z" fill="#F1F6F9"/>
</svg>
