<svg width="16" height="16" viewBox="0 0 16 16" fill="none" xmlns="http://www.w3.org/2000/svg">
<path d="M13 5.32143C13.4142 5.32143 13.75 4.98564 13.75 4.57143C13.75 4.15722 13.4142 3.82143 13 3.82143L13 5.32143ZM3 4.57143L2.48549 4.02574C2.3352 4.16744 2.25 4.36486 2.25 4.57143C2.25 4.77799 2.3352 4.97541 2.48549 5.11712L3 4.57143ZM5.21276 7.68855C5.51414 7.9727 5.98881 7.95874 6.27297 7.65737C6.55712 7.35599 6.54316 6.88132 6.24178 6.59716L5.21276 7.68855ZM6.24178 2.54569C6.54316 2.26154 6.55712 1.78687 6.27297 1.48549C5.98881 1.18411 5.51414 1.17015 5.21276 1.45431L6.24178 2.54569ZM3 10.6786C2.58579 10.6786 2.25 11.0144 2.25 11.4286C2.25 11.8428 2.58579 12.1786 3 12.1786L3 10.6786ZM13 11.4286L13.5145 11.9743C13.6648 11.8326 13.75 11.6351 13.75 11.4286C13.75 11.222 13.6648 11.0246 13.5145 10.8829L13 11.4286ZM9.75822 13.4543C9.45684 13.7385 9.44288 14.2131 9.72703 14.5145C10.0112 14.8159 10.4859 14.8298 10.7872 14.5457L9.75822 13.4543ZM10.7872 8.31145C10.4859 8.0273 10.0112 8.04126 9.72704 8.34263C9.44288 8.64401 9.45684 9.11868 9.75822 9.40283L10.7872 8.31145ZM13 3.82143L3 3.82143L3 5.32143L13 5.32143L13 3.82143ZM2.48549 5.11712L5.21276 7.68855L6.24178 6.59716L3.51451 4.02574L2.48549 5.11712ZM3.51451 5.11712L6.24178 2.54569L5.21276 1.45431L2.48549 4.02574L3.51451 5.11712ZM3 12.1786L13 12.1786L13 10.6786L3 10.6786L3 12.1786ZM12.4855 10.8829L9.75822 13.4543L10.7872 14.5457L13.5145 11.9743L12.4855 10.8829ZM13.5145 10.8829L10.7872 8.31145L9.75822 9.40283L12.4855 11.9743L13.5145 10.8829Z" fill="#3F4E4F"/>
</svg>
